<svg width="20" height="20" viewBox="0 0 20 20" fill="none" xmlns="http://www.w3.org/2000/svg">
<rect x="0.0292969" y="18.5547" width="25.263" height="2" transform="rotate(-45 0.0292969 18.5547)" fill="#1B1B1B"/>
<mask id="path-2-inside-1_545_20669" fill="white">
<path d="M0 0L20 -1.11273e-06L20 20L1.11273e-06 20L0 0Z"/>
</mask>
<path d="M20 -1.11273e-06L22 -1.224e-06L22 -2L20 -2L20 -1.11273e-06ZM1.11273e-07 2L20 2L20 -2L-1.11273e-07 -2L1.11273e-07 2ZM18 -1.00145e-06L18 20L22 20L22 -1.224e-06L18 -1.00145e-06Z" fill="#1B1B1B" mask="url(#path-2-inside-1_545_20669)"/>
</svg>
