<svg width="15" height="13" viewBox="0 0 15 13" fill="none" xmlns="http://www.w3.org/2000/svg">
<path d="M1.23047 13V4.21094H3.51562V13H1.23047ZM0.878906 1.92578C0.878906 1.13477 1.54688 0.625 2.39062 0.625C3.23438 0.625 3.88477 1.13477 3.88477 1.92578C3.88477 2.73438 3.23438 3.22656 2.39062 3.22656C1.54688 3.22656 0.878906 2.73438 0.878906 1.92578ZM5.97656 13V4.21094H7.73438L8.20898 5.49414C8.75391 4.63281 9.65039 3.94727 11.0742 3.94727C13.5176 3.94727 14.7656 5.5293 14.7656 7.90234V13H12.3047V7.90234C12.2695 6.84766 11.584 5.96875 10.3887 5.96875C9.21094 5.96875 8.47266 6.9707 8.4375 8.02539V13H5.97656Z" fill="#1B1B1B"/>
</svg>
